<?xml version="1.0" encoding="UTF-8"?>
<svg xmlns="http://www.w3.org/2000/svg" version="1.1" viewBox="0 0 225 65.1">
  <defs>
    <style>
      .cls-1 {
        fill: #27235d;
      }

      .cls-2 {
        fill: #fff;
      }

      .cls-3 {
        fill: #dd2129;
      }
    </style>
  </defs>
  <!-- Generator: Adobe Illustrator 28.7.1, SVG Export Plug-In . SVG Version: 1.2.0 Build 142)  -->
  <g>
    <g id="Layer_1">
      <g>
        <g>
          <path class="cls-3" d="M66,59.3S46,26.1,23.6,11.1c6.4,5.6,26.4,22.6,40.8,49,1.4.6,2.3,1.4,2.3,1.4l-.7-2.2Z"/>
          <path class="cls-3" d="M.8,5.3c6.3,1.6,10.8,5.9,14.5,11,4.8,1.3,10,2,12.1,4.4-3.8-1.6-7.5-1.8-10.3-1.6,3.5,5.5,6.3,11.6,9.4,16.4,6.9,2.7,14.6,1.5,19.1,5.6-2.5-1.3-7.6-.1-14.5-.1.2.2.4.4.6.5,9.8,7.3,25.6,10.4,25.6,10.4C42,29.3,21.7,4.3.8,5.3Z"/>
          <path class="cls-1" d="M54.7,36.4c.6-1.9.7-4.3.5-6.7-4.1-11.8-9.8-19.1-17.7-23.1,2.1,3.3,4.2,7.4,4.2,10.9-1.1-4.4-5.3-9.2-8.7-12.7C24.7,2.1,14.3,2.2,1.3,4c34-1,58.5,43.9,58.5,43.9-1-5.8-2.3-10.9-3.7-15.4-.3,1.5-.8,2.8-1.4,3.9h0Z"/>
        </g>
        <g>
          <path class="cls-1" d="M20.2,38.4s-10.3,12.6-9,13.3c2.4,1.2,10.2-2.1,22.1-2.1s25.6,5.7,25.6,5.7c0,0-16.2-4.8-25.6-4.3-11.5.6-22.7,3.8-27.5,5.2,1.2-3.6,14.4-17.9,14.4-17.9h0Z"/>
          <path class="cls-1" d="M8.9,54.4l5.2,7.2s22.9-8.8,44.6,0c-20.9-10.2-42-2.5-44-2.6-2-.1-5.8-4.5-5.8-4.5Z"/>
          <path class="cls-1" d="M11.5,56.6s21.5-9.4,47.1.9c-21.7-9.5-39.9-4.4-47.1-.9Z"/>
          <path class="cls-1" d="M12.2,58.4s20.6-9.6,46.2.7c-21.7-9.5-39-4.2-46.2-.7Z"/>
        </g>
      </g>
      <g>
        <g>
          <path class="cls-3" d="M122.3,29.8c1.6,1.8,1.3,3.8.8,5.8-.3,1.2-1.3,1.7-2.5,1.7-4,0-8,0-12,0-.7,0-1-.3-1-1,0-4.2,0-8.4,0-12.7,0-.9.5-1,1.2-1,3.5,0,7.1,0,10.6,0,3.4,0,5.1,3.1,3.5,6.1-.2.3-.4.6-.7,1h0ZM110.7,34.4c2.9,0,5.7,0,8.5,0,.8,0,1.3-.4,1.2-1.3,0-.9.1-1.9-1.1-2-2.9,0-5.7,0-8.6,0v3.3ZM110.8,28.7c2.9,0,5.6,0,8.4,0,.9,0,1.3-.4,1.3-1.4,0-.8,0-1.7-1-1.7-2.9,0-5.7,0-8.6,0,0,0,0,3.1,0,3.1Z"/>
          <path class="cls-3" d="M220.1,31.2c-1.9,0-3.6,0-5.3,0-1.1,0-1.2-.5-1.2-1.4,0-.9.2-1.2,1.2-1.2,2.3,0,4.6,0,6.9,0,.8,0,1.3.2,1.2,1.2,0,1.7,0,3.3,0,4.9,0,1.8-.8,2.6-2.6,2.6-2.8,0-5.5,0-8.3,0-3.2,0-4.7-1.2-4.9-4.3-.2-2.1-.1-4.3,0-6.4.2-2.3,1.3-3.3,3.6-3.7.6-.1,1.2-.1,1.8-.1,3.4,0,6.9,0,10.4,0,0,.6,0,1,0,1.5.2,1.2-.2,1.6-1.5,1.6-2.9,0-5.9,0-8.8,0-2,0-2.6.6-2.6,2.5,0,1.3,0,2.7,0,4,.1,1.6.7,2.1,2.3,2.2,2.2,0,4.4,0,6.6,0,.9,0,1.3-.4,1.2-1.3,0-.6,0-1.2,0-1.9h0Z"/>
          <path class="cls-3" d="M147.1,37.3v-2.8c.5,0,1,0,1.4,0,2.9,0,5.8,0,8.7,0,1.2,0,1.7-.5,1.7-1.7,0-1.3-.6-1.5-1.7-1.5-2.2,0-4.5,0-6.7,0-2.2,0-3.3-1.1-3.4-3.4v-.3c0-4.1.7-4.9,4.7-4.9h9.6v2.9h-2.3c-2.5,0-5,0-7.6,0-1,0-1.4.3-1.4,1.3,0,1,.2,1.7,1.4,1.7,2.3,0,4.6,0,6.9,0,2.5,0,3.6,1.2,3.6,3.7,0,.7,0,1.4,0,2.1-.2,1.7-1.2,2.8-2.9,2.9-3.9,0-7.8,0-11.9,0h0Z"/>
          <path class="cls-3" d="M190.7,25.8v11.4h-2.9c0-.3-.2-.6-.2-1,0-3.8,0-7.5,0-11.3,0-2,.4-2.1,2.4-2.3,1.9-.2,3,.6,4.1,2.1,1.9,2.9,4,5.7,6.1,8.5.3.4.5.7.8,1,.1,0,.2,0,.4,0v-11.5h3v2.4c0,3.3,0,6.7,0,10,0,1.7-.4,2-2.1,2.2-2,.2-3.3-.5-4.4-2.2-1.9-2.9-4-5.6-6-8.4-.3-.4-.6-.7-.8-1-.1,0-.2,0-.3,0h0Z"/>
          <path class="cls-3" d="M73.9,32.9v4.1c-.2.1-.3.2-.3.3-1.8.2-2.7-.6-2.7-2.4,0-3.6,0-7.2,0-10.7,0-1.1.3-1.4,1.4-1.4,3.3,0,6.6,0,9.9,0,2.8,0,4.1,1.3,4.1,4.1,0,.7,0,1.5,0,2.2-.1,2.5-1.4,3.8-3.9,3.8-2.3,0-4.7,0-7,0-.4,0-.9,0-1.5,0h0ZM74,30.1c2.5,0,5,0,7.5,0,1.4,0,1.8-.6,1.9-2.1,0-1.8-.3-2.4-1.8-2.4-1.9,0-3.8,0-5.6,0-.6,0-1.2,0-1.8,0,0,0,0,4.4,0,4.4Z"/>
          <path class="cls-3" d="M167.2,37.2h-2.9v-14.5h2.8v5.6h9.3v-5.5c.3-.1.3-.2.4-.2,3.2-.1,2.6-.2,2.6,2.4,0,3.5,0,7,0,10.4,0,.5,0,1,0,1.6h-3v-5.9h-9.2v5.9h0Z"/>
          <path class="cls-3" d="M91.3,22.7v7.8c0,.6,0,1.2,0,1.8,0,1.4.8,2.1,2.2,2.1,2.1,0,4.2,0,6.3,0,1.5,0,2-.6,2.1-2.2,0-2.5,0-5,0-7.6s.6-1.9,1.9-1.9c.3,0,.6,0,.9,0,0,.3.1.7.1,1,0,2.9,0,5.8,0,8.7,0,3.3-1.5,4.8-4.8,4.9-2.3,0-4.7,0-7,0-3.1,0-4.6-1.3-4.8-4.4-.2-3.1-.1-6.2,0-9.3,0-.3.5-.7.9-.8.6-.1,1.3,0,2.1,0h0Z"/>
          <path class="cls-3" d="M139.6,37.2c-3.4,0-6.7.1-10.1,0-2.2-.1-3.5-1.5-3.6-3.8-.2-3.2-.2-6.5-.1-9.7,0-.3.6-.8.9-.9.6-.2,1.3,0,2.1,0v5.6c0,1.3,0,2.7,0,4,.1,1.6.6,2,2.2,2,2.2,0,4.4,0,6.6,0,2.4,0,2.6.3,2,2.9h0Z"/>
          <path class="cls-3" d="M185,37.2h-2.8v-14.5h2.8v14.5Z"/>
          <path class="cls-3" d="M144.5,37.2h-2.8c0-.5,0-1,0-1.5v-11.3c0-1.2.6-1.8,1.9-1.8.3,0,.6,0,1.1,0v14.5h0Z"/>
        </g>
        <polygon class="cls-1" points="163.6 61.1 223.4 61.1 223.4 41.6 146.6 41.6 163.6 61.1"/>
        <g>
          <path class="cls-2" d="M186,46.4l-3.3,9.9h-2.5l-2.2-6.7-2.3,6.7h-2.5l-3.3-9.9h2.4l2.2,7,2.3-7h2.1l2.3,7,2.3-7h2.2,0Z"/>
          <path class="cls-2" d="M197.2,46.4v9.9h-2.3v-4.1h-4.5v4.1h-2.3v-9.9h2.3v3.9h4.5v-3.9h2.3Z"/>
          <path class="cls-2" d="M200.4,46.4h2.3v9.9h-2.3v-9.9Z"/>
          <path class="cls-2" d="M214,54.4v1.9h-8.7v-1.5l5.5-6.6h-5.3v-1.9h8.4v1.5l-5.4,6.6h5.7,0Z"/>
        </g>
      </g>
    </g>
  </g>
</svg>